Sources: Video - PrekrasHye.s0zdaHija.2013.D.TS.1400MB ... Audio - MiNiSTRY - Thanks To Both.

Ok, I used the video from our CAM release, saves me encoding it again so Pretty decent video, all i did to it was resize to correct AR, mess with sat, brightness, contrast and sharpen, Audio is nice line, enjoy.
 
http://www.imdb.com/title/tt1559547

Ethan longs to escape his small Southern town. He meets a mysterious new girl, Lena. Together, they uncover dark secrets about their respective families, their history and their town.

General
Complete name : Beautiful Creatures 2013 TS x264 AAC-OFFLiNE
Format : MPEG-4
Format profile : Base Media
Codec ID : isom
File size : 1.35 GiB
Duration : 1h 57mn
Overall bit rate mode : Variable
Overall bit rate : 1 648 Kbps
Encoded date : UTC 2013-03-12 22:44:35
Tagged date : UTC 2013-03-12 22:44:35

Video
ID : 1
Format : AVC
Format/Info : Advanced Video Codec
Format profile : High@L4.1
Format settings, CABAC : Yes
Format settings, ReFrames : 3 frames
Codec ID : avc1
Codec ID/Info : Advanced Video Coding
Duration : 1h 57mn
Bit rate mode : Variable
Bit rate : 1 553 Kbps
Maximum bit rate : 40.0 Mbps
Width : 720 pixels
Height : 288 pixels
Display aspect ratio : 2.500
Frame rate mode : Constant
Frame rate : 25.000 fps
Color space : YUV
Chroma subsampling : 4:2:0
Bit depth : 8 bits
Scan type : Progressive
Bits/(Pixel*Frame) : 0.300
Stream size : 1.27 GiB (94%)
Writing library : x264 core 129 r2245 bc13772

Audio
ID : 2
Format : AAC
Format/Info : Advanced Audio Codec
Format profile : LC
Codec ID : 40
Duration : 1h 57mn
Bit rate mode : Variable
Bit rate : 91.5 Kbps
Maximum bit rate : 110 Kbps
Channel(s) : 2 channels
Channel positions : Front: L R
Sampling rate : 48.0 KHz
Compression mode : Lossy
Stream size : 76.7 MiB (6%)
Language : English
Encoded date : UTC 2013-03-12 22:41:00
Tagged date : UTC 2013-03-12 22:45:20
 
http://lookpic.com/O/i2/215/YT1ftTuM.png 
http://lookpic.com/O/i2/1004/PdCwYRMF.png 
http://lookpic.com/O/i2/301/tm383hF7.png 
http://lookpic.com/O/i2/705/igi8DEMt.png